# xmcd CD database file
#
# Track frame offsets:
#	150
#	25435
#	52092
#	101937
#	127407
#	171237
#	212182
#	243887
#	283647
#	303955
#
# Disc length: 4364 seconds
#
# Revision: 0
# Processed by: cddbd v1.5.2PL0 Copyright (c) Steve Scherf et al.
# Submitted via: CDex 1.70beta2
#
DISCID=9b110a0a
DTITLE=Pete Jolly - Live in LA
DYEAR=1961
DGENRE=Jazz
TTITLE0=Oleo
TTITLE1=Time after Time
TTITLE2=Falling in Love with Love
TTITLE3=The Red Door
TTITLE4=Blues in The Closet
TTITLE5=I'm Beginning to See The Light
TTITLE6=Someday My Prince Will Come
TTITLE7=Yeah!
TTITLE8=Whistle While You Work
TTITLE9=Bluesette
EXTD=YEAR: 1961
EXTT0=
EXTT1=
EXTT2=
EXTT3=
EXTT4=
EXTT5=
EXTT6=
EXTT7=
EXTT8=
EXTT9=
PLAYORDER=
